<?xml version="1.0" encoding="UTF-8"?>
<svg version="1.1" xmlns="http://www.w3.org/2000/svg" width="320" height="120">
<path d="M0 0 C79.2 0 158.4 0 240 0 C240 39.6 240 79.2 240 120 C160.8 120 81.6 120 0 120 C0 80.4 0 40.8 0 0 Z " fill="#FCFCFC" transform="translate(40,0)"/>
<path d="M0 0 C0.825 0.598125 1.65 1.19625 2.5 1.8125 C1.14340667 6.56057665 -1.5237004 9.09629535 -5.5 11.8125 C-7.46996343 12.87044332 -9.46270075 13.89086462 -11.5 14.8125 C-10.98050781 15.04324219 -10.46101563 15.27398437 -9.92578125 15.51171875 C-5.29518059 17.6772307 -1.86054084 19.84095174 1.5 23.8125 C3.1247734 28.68682021 3.34194604 33.68287178 1.4375 38.5 C-3.87756495 44.8437872 -8.79384643 48.3448383 -17.234375 49.18359375 C-25.27999899 49.42610546 -33.04708932 49.3728312 -39.5 43.8125 C-40.421875 41.8671875 -40.421875 41.8671875 -40.5 39.8125 C-39.42578125 37.9609375 -39.42578125 37.9609375 -37.8125 36.1875 C-37.29300781 35.59710938 -36.77351563 35.00671875 -36.23828125 34.3984375 C-32.85923664 31.31553388 -30.03719068 30.52074935 -25.5 30.5 C-24.654375 30.48324219 -23.80875 30.46648437 -22.9375 30.44921875 C-20.04669465 30.88005993 -18.67173725 31.90720274 -16.5 33.8125 C-22.75381166 40.49232063 -22.75381166 40.49232063 -27.03515625 41.27734375 C-29.2293128 41.25300287 -31.32970672 41.1290011 -33.5 40.8125 C-31.97427344 37.48614118 -30.56655496 35.85686998 -27.5 33.8125 C-32.07748509 36.6920976 -32.07748509 36.6920976 -35.5 40.8125 C-27.43855849 45.17424613 -20.57331498 46.14841393 -11.6875 43.6875 C-7.28586243 42.00475006 -4.94137721 39.93232403 -2.5 35.8125 C-1.84699762 32.80770711 -1.57506366 29.88328605 -1.5 26.8125 C-2.17804688 27.13476562 -2.85609375 27.45703125 -3.5546875 27.7890625 C-12.05815324 30.74384768 -22.12593682 29.39593037 -30.2578125 25.9453125 C-35.58761119 23.25255707 -38.46690045 20.4837777 -40.5 14.8125 C-41.35162237 10.60126644 -41.39411302 7.33170088 -39.17578125 3.5625 C-29.25693959 -8.5630053 -12.58401116 -8.16652919 0 0 Z " fill="#27A037" transform="translate(100.5,37.1875)"/>
<path d="M0 0 C0 4.26826873 -0.37613513 4.93882432 -3 8 C-3.556875 7.7834375 -4.11375 7.566875 -4.6875 7.34375 C-11.36861143 4.90604718 -16.69371039 3.58301874 -23.5 6.5 C-24.7375 7.2425 -24.7375 7.2425 -26 8 C-25.67 9.98 -25.34 11.96 -25 14 C-23.9378125 14.31453125 -22.875625 14.6290625 -21.78125 14.953125 C-2.17284487 20.85349132 -2.17284487 20.85349132 2 26 C1.73913095 30.60868654 0.58042602 34.68016889 -1 39 C0.32 37.68 1.64 36.36 3 35 C1.75854982 39.96580074 0.33329746 42.24244707 -4 45 C-8.62478308 46.87818702 -12.86919961 47.35132635 -17.8125 47.3125 C-18.51592529 47.30976074 -19.21935059 47.30702148 -19.9440918 47.30419922 C-26.8958457 47.1647956 -32.2440728 45.8372848 -38 42 C-36.79618552 39.50638429 -35.54571278 37.31856917 -34 35 C-31.30417039 35.47573464 -28.92011763 36.03233334 -26.375 37.0625 C-21.09003808 38.53054498 -14.80165877 39.21811251 -9.6640625 36.984375 C-8.84035156 36.49710938 -8.84035156 36.49710938 -8 36 C-8 34.02 -8 32.04 -8 30 C-13.39576464 27.97915279 -18.73966471 26.03841072 -24.3125 24.5625 C-28.92390755 23.22607297 -31.61251886 21.38748114 -35 18 C-36.88377482 14.23245036 -36.63726791 10.09322079 -36 6 C-33.69994168 1.56417325 -29.92814468 -1.87886471 -25.171875 -3.5625 C-16.087269 -5.39249257 -8.19727303 -4.14489652 0 0 Z " fill="#102138" transform="translate(214,38)"/>
<path d="M0 0 C1.41726485 1.17107331 2.76780339 2.42213879 4.1015625 3.6875 C2.96138248 7.10804006 2.17697732 7.9301201 -0.8984375 9.6875 C-3.61299052 9.5065298 -5.17506505 8.52284074 -7.5234375 7.125 C-12.08030866 5.18411043 -16.01199436 4.97124612 -20.8984375 5.6875 C-25.32328628 7.89992439 -28.09320407 10.63549616 -30.8984375 14.6875 C-32.51944404 19.55051963 -32.28905035 23.4288586 -30.7734375 28.3125 C-28.32329302 32.72276006 -25.47218633 35.40062558 -20.8984375 37.6875 C-12.75813412 38.37915976 -7.60633336 37.50872511 -1.0234375 32.5 C-0.3221875 31.901875 0.3790625 31.30375 1.1015625 30.6875 C-0.46318117 34.91230792 -3.35207908 37.04511529 -6.8984375 39.6875 C-9.7734375 41 -9.7734375 41 -11.8984375 41.6875 C-4.15620414 41.222966 -1.15407329 37.97405129 4.1015625 32.6875 C4.20967165 35.84969273 4.09108722 38.66684559 3.1015625 41.6875 C0.67086205 43.71490038 -1.91039329 44.71086298 -4.8984375 45.6875 C-5.8884375 46.0175 -6.8784375 46.3475 -7.8984375 46.6875 C-17.73534817 47.35496557 -25.97003118 47.66398742 -33.8203125 41.07421875 C-38.5529656 36.66424654 -41.51515571 32.5279449 -42.40234375 25.953125 C-42.69590481 17.25382477 -42.09854553 10.37040333 -35.8984375 3.6875 C-25.8918875 -4.97759221 -11.42796922 -7.90081823 0 0 Z " fill="#0E1F37" transform="translate(162.8984375,38.3125)"/>
<path d="M0 0 C3.25909635 1.45025713 6.30507523 3.18840165 9.375 5 C10.20644531 5.47695313 11.03789062 5.95390625 11.89453125 6.4453125 C13.9365931 7.61891127 15.97106875 8.80389127 18 10 C17.98046875 12.171875 17.98046875 12.171875 17 15 C14.65506762 17.10527613 12.01794506 18.64925837 9.3125 20.25 C8.60416016 20.69601563 7.89582031 21.14203125 7.16601562 21.6015625 C-0.34343329 26.17795796 -0.34343329 26.17795796 -5 26 C-8.34361425 24.62109606 -11.32241408 22.802949 -14.375 20.875 C-15.20644531 20.38773438 -16.03789062 19.90046875 -16.89453125 19.3984375 C-17.67957031 18.91375 -18.46460938 18.4290625 -19.2734375 17.9296875 C-19.98935059 17.48866699 -20.70526367 17.04764648 -21.44287109 16.59326172 C-23 15 -23 15 -23.45214844 12.48413086 C-23 10 -23 10 -21.53466797 8.5144043 C-20.86064941 8.12164307 -20.18663086 7.72888184 -19.4921875 7.32421875 C-18.75226563 6.88916016 -18.01234375 6.45410156 -17.25 6.00585938 C-16.46625 5.57080078 -15.6825 5.13574219 -14.875 4.6875 C-14.11445313 4.23310547 -13.35390625 3.77871094 -12.5703125 3.31054688 C-8.29967524 0.86229362 -5.01260285 -1.00122866 0 0 Z " fill="#FD8306" transform="translate(246,39)"/>
<path d="M0 0 C12.19463742 -0.57840177 20.28760756 0.33200937 29.6875 8.53515625 C32.58009341 11.76349711 32.27964343 15.70688313 32.20703125 19.79296875 C31.69313241 25.27132429 27.90328993 28.22996065 24.01171875 31.66796875 C17.12348646 36.22891479 7.96150595 36.03045377 0 35 C-3.72735832 33.86872196 -7.03079776 32.55849626 -10 30 C-10.921875 28.0546875 -10.921875 28.0546875 -11 26 C-9.92578125 24.1484375 -9.92578125 24.1484375 -8.3125 22.375 C-7.79300781 21.78460938 -7.27351563 21.19421875 -6.73828125 20.5859375 C-3.35923664 17.50303388 -0.53719068 16.70824935 4 16.6875 C5.2684375 16.66236328 5.2684375 16.66236328 6.5625 16.63671875 C9.45330535 17.06755993 10.82826275 18.09470274 13 20 C6.74618834 26.67982063 6.74618834 26.67982063 2.46484375 27.46484375 C0.2706872 27.44050287 -1.82970672 27.3165011 -4 27 C-2.47427344 23.67364118 -1.06655496 22.04436998 2 20 C-2.57748509 22.8795976 -2.57748509 22.8795976 -6 27 C2.06144151 31.36174613 8.92668502 32.33591393 17.8125 29.875 C22.21413757 28.19225006 24.55862279 26.11982403 27 22 C27.65300238 18.99520711 27.92493634 16.07078605 28 13 C27.31550781 13.32742187 26.63101563 13.65484375 25.92578125 13.9921875 C22.51087941 15.16848212 19.78968716 15.19777146 16.1875 15.125 C15.02605469 15.10695313 13.86460938 15.08890625 12.66796875 15.0703125 C11.78753906 15.04710938 10.90710938 15.02390625 10 15 C12.36660382 12.63339618 13.13963758 12.69009474 16.375 12.4375 C19.35822312 12.1930553 22.11193117 11.7978455 25 11 C18.41545264 4.18839928 12.18142312 2.8961585 3.0390625 2.34375 C2.36617187 2.2303125 1.69328125 2.116875 1 2 C0.67 1.34 0.34 0.68 0 0 Z " fill="#15952A" transform="translate(71,51)"/>
<path d="M0 0 C0.60627706 4.95126266 0.72225784 8.80996718 -2.4375 12.875 C-7.32719013 17.81049519 -13.22976416 19.10109077 -20 19.4375 C-25.26357946 19.29724788 -29.41967478 17.4782436 -34 15 C-34 14.01 -34 13.02 -34 12 C-30.12582134 8.12582134 -27.61758986 6.40125642 -22 6 C-24.02893729 7.35262486 -26.07113875 8.6855288 -28.125 10 C-31.04489239 11.69074133 -31.04489239 11.69074133 -32 14 C-25.52060152 13.97061497 -21.90956687 12.80173678 -17.21484375 8.27734375 C-16.61349609 7.64505859 -16.61349609 7.64505859 -16 7 C-19.18762365 4.87491756 -21.26512223 4.4979837 -25 4 C-24.01 3.67 -23.02 3.34 -22 3 C-22 2.34 -22 1.68 -22 1 C-20.21142578 1.01740234 -20.21142578 1.01740234 -18.38671875 1.03515625 C-16.82031406 1.04453592 -15.25390769 1.05363593 -13.6875 1.0625 C-12.50897461 1.07506836 -12.50897461 1.07506836 -11.30664062 1.08789062 C-10.1706543 1.09272461 -10.1706543 1.09272461 -9.01171875 1.09765625 C-7.96697388 1.10551147 -7.96697388 1.10551147 -6.90112305 1.11352539 C-4.45785586 0.96762591 -2.46000489 0 0 0 Z " fill="#F5FAF5" transform="translate(99,64)"/>
<path d="M0 0 C0 0.99 0 1.98 0 3 C-3.87417866 6.87417866 -6.38241014 8.59874358 -12 9 C-9.53721199 6.53721199 -7.29323018 6.00228745 -4 5 C-4 4.01 -4 3.02 -4 2 C-7.48472283 1.57329924 -10.0186845 1.35210444 -13.0234375 3.3359375 C-14.74896747 4.83609212 -16.40059768 6.36656784 -18 8 C-17.67 8.99 -17.34 9.98 -17 11 C-17.89203125 11.13277344 -18.7840625 11.26554687 -19.703125 11.40234375 C-20.87359375 11.57894531 -22.0440625 11.75554688 -23.25 11.9375 C-24.41015625 12.11152344 -25.5703125 12.28554688 -26.765625 12.46484375 C-29.23106961 12.8727736 -31.59424562 13.33901303 -34 14 C-35.0607574 5.48026597 -35.0607574 5.48026597 -32.6171875 2.0703125 C-22.756548 -6.50972447 -11.21039507 -5.55559402 0 0 Z " fill="#F6FAF6" transform="translate(98,39)"/>
<path d="M0 0 C5.09703237 1.83903915 9.34610599 4.69152336 13.8671875 7.63671875 C17.85797846 9.3733597 19.82200304 9.13903449 24 8 C26.38045854 6.69020432 28.53030921 5.40528095 30.75 3.875 C32.8063543 2.46802074 34.81754493 1.22099513 37 0 C37.99 0.33 38.98 0.66 40 1 C39.98046875 3.171875 39.98046875 3.171875 39 6 C36.65506762 8.10527613 34.01794506 9.64925837 31.3125 11.25 C30.60416016 11.69601563 29.89582031 12.14203125 29.16601562 12.6015625 C21.65338199 17.17989879 21.65338199 17.17989879 17 17 C13.82900668 15.62186816 11.04728451 13.80590309 8.1875 11.875 C7.41212891 11.38773438 6.63675781 10.90046875 5.83789062 10.3984375 C0.28550335 6.7454233 0.28550335 6.7454233 -1.07421875 3.1953125 C-1 1 -1 1 0 0 Z " fill="#F8510E" transform="translate(224,67)"/>
<path d="M0 0 C5.23827661 0.61569296 8.9392448 3.32463249 13.18359375 6.20507812 C16.62595636 8.44463874 18.90581136 9.84621528 23 9 C25.66530541 7.66324568 28.13520188 6.07386146 30.625 4.4375 C33.05370755 2.84571194 35.44923955 1.4043842 38 0 C38.99 0.33 39.98 0.66 41 1 C41.0078125 3.1640625 41.0078125 3.1640625 40 6 C37.51446139 8.17193536 34.73495697 9.74415497 31.875 11.375 C31.12734375 11.83777344 30.3796875 12.30054687 29.609375 12.77734375 C26.02415656 14.86976218 23.6759942 15.9835306 19.47265625 16.0859375 C15.05877944 14.70567006 11.45501021 12.71442549 7.5625 10.25 C6.83095703 9.81945312 6.09941406 9.38890625 5.34570312 8.9453125 C3.3984646 7.73078838 1.6545047 6.5910267 0 5 C-0.47265625 2.171875 -0.47265625 2.171875 0 0 Z " fill="#F84F0B" transform="translate(223,58)"/>
<path d="M0 0 C6.54344169 0.356915 11.71137595 1.9959214 17 6 C17.33 6.99 17.66 7.98 18 9 C15.28835886 14.28831372 10.53015034 17.44844252 5.078125 19.421875 C-1.24608457 20.60967071 -7.6521534 19.7245681 -14 19 C-14 18.67 -14 18.34 -14 18 C-11.03 17.67 -8.06 17.34 -5 17 C-5 16.01 -5 15.02 -5 14 C-3.01754141 11.52343319 -0.70575005 9.64538854 2 8 C5.9375 7.625 5.9375 7.625 9 8 C9.33 8.66 9.66 9.32 10 10 C8.68 11.32 7.36 12.64 6 14 C9.26460973 12.19587357 10.88929795 11.16605307 13 8 C8.05 6.02 8.05 6.02 3 4 C3 3.34 3 2.68 3 2 C2.01 2 1.02 2 0 2 C0 1.34 0 0.68 0 0 Z " fill="#46B13A" transform="translate(85,32)"/>
<path d="M0 0 C2.65412165 0.46837441 5.04586728 1.01789943 7.5625 2 C12.63023377 3.47424982 17.74885569 3.6771141 23 4 C22.25 5.9375 22.25 5.9375 21 8 C19.68 8.33 18.36 8.66 17 9 C19.97 9.33 22.94 9.66 26 10 C23.51537468 12.48462532 21.98922629 12.28202844 18.59057617 12.32861328 C17.88006104 12.3232959 17.1695459 12.31797852 16.4375 12.3125 C15.35529175 12.30839111 15.35529175 12.30839111 14.2512207 12.30419922 C7.33308345 12.16896094 1.79601509 10.86401006 -4 7 C-2.79618552 4.50638429 -1.54571278 2.31856917 0 0 Z " fill="#0E1F35" transform="translate(180,73)"/>
<path d="M0 0 C1.29550781 -0.03867188 1.29550781 -0.03867188 2.6171875 -0.078125 C5.57524649 0.30891076 6.91701784 1.29875995 9.125 3.25 C2.87118834 9.92982063 2.87118834 9.92982063 -1.41015625 10.71484375 C-3.6043128 10.69050287 -5.70470672 10.5665011 -7.875 10.25 C-6.34927344 6.92364118 -4.94155496 5.29436998 -1.875 3.25 C-6.45248509 6.1295976 -6.45248509 6.1295976 -9.875 10.25 C-5.42 12.23 -5.42 12.23 -0.875 14.25 C-1.865 15.24 -2.855 16.23 -3.875 17.25 C-8.18340713 16.17289822 -11.51076723 15.21052484 -14.875 12.25 C-14.7908797 9.38990965 -14.30681261 7.70351173 -12.3203125 5.6171875 C-8.14776784 2.03330059 -5.60630333 0.09981549 0 0 Z " fill="#5DBC4A" transform="translate(74.875,67.75)"/>
<path d="M0 0 C1.30453125 -0.01417969 2.6090625 -0.02835938 3.953125 -0.04296875 C10.2831618 0.34126188 14.72137664 2.35616792 19.75 6.1875 C19.75 6.8475 19.75 7.5075 19.75 8.1875 C12.80598325 10.50217225 4.26487602 10.28274572 -2.4375 7.3125 C-4.84467262 6.06979138 -6.98720428 4.69603048 -9.25 3.1875 C-9.25 2.5275 -9.25 1.8675 -9.25 1.1875 C-6.21673215 -0.32913393 -3.371154 0.01652526 0 0 Z " fill="#F5FAF5" transform="translate(76.25,53.8125)"/>
<path d="M0 0 C0.33 0 0.66 0 1 0 C1.57269504 9.7358156 1.57269504 9.7358156 -2 14 C-7.06939381 19.12059981 -11.67027713 22.04997484 -19.0859375 22.1953125 C-20.51575693 22.18219489 -21.94551534 22.15860452 -23.375 22.125 C-24.47908203 22.11146484 -24.47908203 22.11146484 -25.60546875 22.09765625 C-27.4037888 22.07430144 -29.20193911 22.03843836 -31 22 C-31 21.34 -31 20.68 -31 20 C-27.43236116 18.21618058 -23.07345328 18.33611478 -19.1171875 18.01367188 C-13.27647287 17.40028828 -9.40798572 15.40798572 -5.1875 11.1875 C-3.56557942 8.19975157 -3.32256779 5.35470499 -3 2 C-2.67 2.99 -2.34 3.98 -2 5 C-1.34 5 -0.68 5 0 5 C0 3.35 0 1.7 0 0 Z " fill="#1D9B2F" transform="translate(102,64)"/>
<path d="M0 0 C2 1 2 1 3 3 C1.85660156 3.63808594 0.71320313 4.27617188 -0.46484375 4.93359375 C-1.95577803 5.76814187 -3.44666079 6.60278204 -4.9375 7.4375 C-6.06961914 8.06881836 -6.06961914 8.06881836 -7.22460938 8.71289062 C-7.94326172 9.11572266 -8.66191406 9.51855469 -9.40234375 9.93359375 C-10.06741943 10.30540771 -10.73249512 10.67722168 -11.41772461 11.06030273 C-12.98577832 11.90347714 -12.98577832 11.90347714 -14 13 C-19.15348229 13.83151872 -22.51386387 11.26438968 -26.6875 8.625 C-27.36361328 8.2125 -28.03972656 7.8 -28.73632812 7.375 C-31.38423483 5.74146551 -33.79286339 4.20713661 -36 2 C-34.3984375 1.25 -34.3984375 1.25 -32 1 C-29.16519993 2.58221399 -26.58836376 4.31123993 -23.953125 6.1953125 C-21.17796023 8.05845129 -19.38178382 8.99900318 -16.0078125 9.0078125 C-12.38885408 7.79522643 -9.39158006 5.99105277 -6.25 3.875 C-4.19236244 2.49863841 -2.15339195 1.23135949 0 0 Z " fill="#FDEEE4" transform="translate(260,55)"/>
<path d="M0 0 C3.41404341 1.21143476 6.30581673 2.79877183 9.375 4.6875 C12.42372699 6.37509846 13.88388103 6.99366624 17.4375 7.1875 C21.68356694 5.77214435 25.06565094 3.67314828 28.765625 1.1796875 C29.87164062 0.59574219 29.87164062 0.59574219 31 0 C31.99 0.33 32.98 0.66 34 1 C31.4301651 3.85146064 28.51137852 5.74681827 25.25 7.75 C24.24453125 8.38421875 23.2390625 9.0184375 22.203125 9.671875 C18.17662308 11.34140018 16.18920951 11.13159463 12 10 C9.5476528 8.71543718 7.34845886 7.45709837 5.0625 5.9375 C4.47404297 5.56044922 3.88558594 5.18339844 3.27929688 4.79492188 C1.84578537 3.87421123 0.4218428 2.93863006 -1 2 C-0.67 1.34 -0.34 0.68 0 0 Z " fill="#FDEDE5" transform="translate(227,66)"/>
<path d="M0 0 C0.33 0.66 0.66 1.32 1 2 C-1.48952921 4.66735273 -3.63408134 6.55746343 -7 8 C-5.68 8.99 -4.36 9.98 -3 11 C-7.34492771 12.13896163 -11.38620785 11.93100471 -15.8125 11.5625 C-16.50537109 11.51029297 -17.19824219 11.45808594 -17.91210938 11.40429688 C-19.60854437 11.27560181 -21.30434863 11.13863816 -23 11 C-23 10.67 -23 10.34 -23 10 C-18.545 9.505 -18.545 9.505 -14 9 C-14 8.01 -14 7.02 -14 6 C-10.04442576 1.05853795 -6.4044393 -0.78421706 0 0 Z " fill="#65C04C" transform="translate(94,40)"/>
<path d="M0 0 C-0.16015625 2.2890625 -0.16015625 2.2890625 -1 5 C-3.43359375 6.8359375 -3.43359375 6.8359375 -6.4375 8.375 C-7.92056641 9.16003906 -7.92056641 9.16003906 -9.43359375 9.9609375 C-10.28050781 10.30382812 -11.12742188 10.64671875 -12 11 C-12.66 10.67 -13.32 10.34 -14 10 C-14.625 7.9375 -14.625 7.9375 -15 6 C-13.07010782 4.80017556 -11.13080772 3.61547182 -9.1875 2.4375 C-8.10855469 1.77621094 -7.02960938 1.11492188 -5.91796875 0.43359375 C-3 -1 -3 -1 0 0 Z " fill="#FB6B11" transform="translate(264,59)"/>
<path d="M0 0 C-0.95421808 1.14926266 -1.91352045 2.29430541 -2.875 3.4375 C-3.40867187 4.07558594 -3.94234375 4.71367188 -4.4921875 5.37109375 C-6.37460873 7.40469389 -7.38831535 7.9723969 -10.1640625 8.09765625 C-11.38222656 8.08025391 -11.38222656 8.08025391 -12.625 8.0625 C-13.85089844 8.04896484 -13.85089844 8.04896484 -15.1015625 8.03515625 C-16.04128906 8.01775391 -16.04128906 8.01775391 -17 8 C-15.28918226 4.21120272 -13.78357481 2.84779235 -10 1 C-6.61523638 0.06919 -3.50100606 -0.10002874 0 0 Z " fill="#229F2D" transform="translate(84,70)"/>
<path d="M0 0 C0 0.99 0 1.98 0 3 C1.32 2.01 2.64 1.02 4 0 C2.76334077 4.94663693 1.30542785 7.23222495 -3 10 C-6.04127105 11.01587342 -8.51374901 11.03897325 -11.6875 10.6875 C-12.86892578 10.56955078 -12.86892578 10.56955078 -14.07421875 10.44921875 C-14.70972656 10.30097656 -15.34523437 10.15273437 -16 10 C-16.33 9.34 -16.66 8.68 -17 8 C-15.845 7.95875 -14.69 7.9175 -13.5 7.875 C-7.90801412 7.21711931 -3.90018793 3.90018793 0 0 Z " fill="#4E3129" transform="translate(213,73)"/>
<path d="M0 0 C2.77173894 1.157815 5.38998931 2.51613606 8 4 C8 4.33 8 4.66 8 5 C5.20807795 5.05380578 2.4171859 5.09357669 -0.375 5.125 C-1.1690625 5.14175781 -1.963125 5.15851562 -2.78125 5.17578125 C-4.85492015 5.19335473 -6.92883241 5.10335168 -9 5 C-9.66 4.34 -10.32 3.68 -11 3 C-7.15443961 0.28548678 -4.69845551 -0.64488605 0 0 Z " fill="#FD9710" transform="translate(246,39)"/>
<path d="M0 0 C-0.0625 2.25 -0.0625 2.25 -1 5 C-3.2308475 6.67849824 -5.47405906 7.75999263 -8 9 C-8.66 8.34 -9.32 7.68 -10 7 C-9.02640613 3.72518425 -8.30933359 2.23794891 -5.5625 0.125 C-3 -1 -3 -1 0 0 Z " fill="#F95E14" transform="translate(264,68)"/>
<path d="M0 0 C0.721875 0.0825 1.44375 0.165 2.1875 0.25 C-2.95085377 6.81567426 -2.95085377 6.81567426 -6.8125 8.25 C-9.609375 8.4453125 -9.609375 8.4453125 -12.5625 8.375 C-13.54734375 8.35695313 -14.5321875 8.33890625 -15.546875 8.3203125 C-16.66835937 8.28550781 -16.66835937 8.28550781 -17.8125 8.25 C-17.8125 7.92 -17.8125 7.59 -17.8125 7.25 C-16.81669922 6.99476562 -16.81669922 6.99476562 -15.80078125 6.734375 C-10.26956134 5.21631757 -5.18088158 0.46052281 0 0 Z " fill="#54B840" transform="translate(99.8125,41.75)"/>
<path d="M0 0 C1.24523437 0.19464844 2.49046875 0.38929687 3.7734375 0.58984375 C5.18496094 0.82380859 5.18496094 0.82380859 6.625 1.0625 C6.625 1.3925 6.625 1.7225 6.625 2.0625 C-1.295 2.5575 -1.295 2.5575 -9.375 3.0625 C-9.375 3.7225 -9.375 4.3825 -9.375 5.0625 C-10.365 5.3925 -11.355 5.7225 -12.375 6.0625 C-12.705 4.0825 -13.035 2.1025 -13.375 0.0625 C-8.62363698 -0.98279987 -4.78979051 -0.76817395 0 0 Z " fill="#2DA23F" transform="translate(75.375,51.9375)"/>
<path d="M0 0 C0.99 0.66 1.98 1.32 3 2 C1.87720538 2.98169476 0.75168527 3.96027298 -0.375 4.9375 C-1.31472656 5.75541016 -1.31472656 5.75541016 -2.2734375 6.58984375 C-5.77577411 9.45034945 -8.57076024 9.08202296 -13 9 C-10.56968833 6.56968833 -8.06519015 5.52542424 -4.97265625 4.09765625 C-2.93232256 2.96234186 -1.56336271 1.72018907 0 0 Z " fill="#CEE0CF" transform="translate(162,72)"/>
<path d="M0 0 C0.86882812 -0.00515625 1.73765625 -0.0103125 2.6328125 -0.015625 C4.875 0.25 4.875 0.25 6.875 2.25 C6.29492188 2.29898438 5.71484375 2.34796875 5.1171875 2.3984375 C0.43576908 2.84649405 -3.69985459 3.548021 -8.125 5.25 C-8.455 4.26 -8.785 3.27 -9.125 2.25 C-5.97530499 0.40413223 -3.63615326 -0.02170838 0 0 Z " fill="#56B942" transform="translate(75.125,67.75)"/>
<path d="M0 0 C1.98 0.99 3.96 1.98 6 3 C0.54446461 9.97096189 0.54446461 9.97096189 -3 11 C-5.25 10.625 -5.25 10.625 -7 10 C-1.25 7 -1.25 7 1 7 C1 6.01 1 5.02 1 4 C-0.65 3.67 -2.3 3.34 -4 3 C-2.68 2.67 -1.36 2.34 0 2 C0 1.34 0 0.68 0 0 Z " fill="#DBF0D9" transform="translate(93,37)"/>
<path d="M0 0 C0 1.65 0 3.3 0 5 C-6.75 7 -6.75 7 -9 7 C-7.4576387 2.93377477 -4.5679954 0 0 0 Z " fill="#3DAC37" transform="translate(76,71)"/>
<path d="M0 0 C3.8063457 0.67170806 7.35206816 1.72746564 11 3 C10.01 3.99 9.02 4.98 8 6 C5.69 5.34 3.38 4.68 1 4 C0.67 2.68 0.34 1.36 0 0 Z " fill="#42AF39" transform="translate(63,79)"/>
<path d="M0 0 C-0.83144531 0.38091797 -0.83144531 0.38091797 -1.6796875 0.76953125 C-2.40414062 1.11371094 -3.12859375 1.45789063 -3.875 1.8125 C-4.59429687 2.14894531 -5.31359375 2.48539062 -6.0546875 2.83203125 C-8.30542806 3.99467097 -8.30542806 3.99467097 -10 7 C-7.69 7 -5.38 7 -3 7 C-4.6875 8.625 -4.6875 8.625 -7 10 C-9.75 9.1875 -9.75 9.1875 -12 8 C-12 7.01 -12 6.02 -12 5 C-4.91039427 -1.47311828 -4.91039427 -1.47311828 0 0 Z " fill="#D7EDD8" transform="translate(77,71)"/>
<path d="M0 0 C0.33 0.66 0.66 1.32 1 2 C2.3153341 2.70151152 3.65117592 3.36525925 5 4 C5.99 4.66 6.98 5.32 8 6 C8 6.66 8 7.32 8 8 C3.8333396 7.52651586 1.07115285 6.95303159 -2 4 C-2 3.34 -2 2.68 -2 2 C-1.34 2 -0.68 2 0 2 C0 1.34 0 0.68 0 0 Z " fill="#18982C" transform="translate(66,55)"/>
<path d="M0 0 C1.65 0 3.3 0 5 0 C5.33 0.66 5.66 1.32 6 2 C8.01669827 3.13350534 8.01669827 3.13350534 10 4 C5.65507229 5.13896163 1.61379215 4.93100471 -2.8125 4.5625 C-3.85180664 4.48418945 -3.85180664 4.48418945 -4.91210938 4.40429688 C-6.60854437 4.27560181 -8.30434863 4.13863816 -10 4 C-10 3.67 -10 3.34 -10 3 C-9.36191406 2.95101562 -8.72382812 2.90203125 -8.06640625 2.8515625 C-7.24011719 2.77679688 -6.41382812 2.70203125 -5.5625 2.625 C-4.73878906 2.55539063 -3.91507812 2.48578125 -3.06640625 2.4140625 C-2.38449219 2.27742188 -1.70257813 2.14078125 -1 2 C-0.67 1.34 -0.34 0.68 0 0 Z " fill="#91D191" transform="translate(81,47)"/>
<path d="M0 0 C0 3.17370278 -0.30933342 4.3794668 -2 7 C-5.43239419 9.54251421 -8.86247946 9.15913541 -13 9 C-12.42636719 8.73316406 -11.85273438 8.46632813 -11.26171875 8.19140625 C-8.91513571 6.95529602 -6.91888027 5.54593672 -4.8125 3.9375 C-4.11769531 3.41027344 -3.42289063 2.88304688 -2.70703125 2.33984375 C-1.07033279 1.11021516 -1.07033279 1.11021516 0 0 Z " fill="#F77C15" transform="translate(213,73)"/>
<path d="M0 0 C0 3 0 3 -1.28515625 4.53515625 C-5.42588829 8.09345565 -8.63892557 9.90590318 -14 11 C-13 8 -13 8 -11.07421875 6.97265625 C-10.28660156 6.67230469 -9.49898437 6.37195313 -8.6875 6.0625 C-5.03010276 4.55411483 -2.55844817 3.11463255 0 0 Z " fill="#2D3D4D" transform="translate(163,69)"/>
<path d="M0 0 C-2 2 -2 2 -5.0390625 2.1953125 C-6.22242187 2.17210938 -7.40578125 2.14890625 -8.625 2.125 C-9.81351562 2.10695313 -11.00203125 2.08890625 -12.2265625 2.0703125 C-13.14179687 2.04710938 -14.05703125 2.02390625 -15 2 C-12.65759975 -0.34240025 -11.82911717 -0.36283032 -8.625 -0.6875 C-7.85414062 -0.77386719 -7.08328125 -0.86023437 -6.2890625 -0.94921875 C-3.98751626 -1.00027694 -2.19308988 -0.66593825 0 0 Z " fill="#028B19" transform="translate(96,64)"/>
<path d="M0 0 C1.98 0.99 1.98 0.99 4 2 C4 4.64 4 7.28 4 10 C3.34 10 2.68 10 2 10 C0.39644899 6.49223216 -0.22036864 3.85645121 0 0 Z " fill="#0D9123" transform="translate(98,59)"/>
<path d="M0 0 C0.33 0 0.66 0 1 0 C1.05422947 1.4370809 1.09289723 2.87475462 1.125 4.3125 C1.14820312 5.11300781 1.17140625 5.91351563 1.1953125 6.73828125 C1 9 1 9 -1 12 C-3.4294516 8.3558226 -3.16179575 6.28758728 -3 2 C-2.67 2.99 -2.34 3.98 -2 5 C-1.34 5 -0.68 5 0 5 C0 3.35 0 1.7 0 0 Z " fill="#31A344" transform="translate(102,64)"/>
<path d="M0 0 C0.94875 0.350625 1.8975 0.70125 2.875 1.0625 C1.555 2.3825 0.235 3.7025 -1.125 5.0625 C-2.115 4.7325 -3.105 4.4025 -4.125 4.0625 C-4.8125 2 -4.8125 2 -5.125 0.0625 C-3.125 -0.9375 -3.125 -0.9375 0 0 Z " fill="#F95E13" transform="translate(254.125,64.9375)"/>
<path d="M0 0 C4.95 0.33 9.9 0.66 15 1 C15 1.33 15 1.66 15 2 C13.95199219 2.09087891 13.95199219 2.09087891 12.8828125 2.18359375 C11.97273438 2.26738281 11.06265625 2.35117188 10.125 2.4375 C9.22007813 2.51871094 8.31515625 2.59992188 7.3828125 2.68359375 C4.98889139 2.86989285 4.98889139 2.86989285 3 4 C0.99199544 3.71887936 -1.01014051 3.38932033 -3 3 C-2.01 2.67 -1.02 2.34 0 2 C0 1.34 0 0.68 0 0 Z " fill="#BDE2C2" transform="translate(77,65)"/>
<path d="M0 0 C3.63 0 7.26 0 11 0 C11 0.66 11 1.32 11 2 C11.99 2.33 12.98 2.66 14 3 C8.78020872 3.1799928 4.92737019 2.97094808 0 1 C0 0.67 0 0.34 0 0 Z " fill="#33A734" transform="translate(74,32)"/>
<path d="M0 0 C0.66 0 1.32 0 2 0 C3.35439668 2.70879335 3.06501451 5.00933268 3 8 C2.01 8.33 1.02 8.66 0 9 C0 6.03 0 3.06 0 0 Z " fill="#1A9B2C" transform="translate(60,43)"/>
<path d="M0 0 C0.99 0.33 1.98 0.66 3 1 C2.75 2.875 2.75 2.875 2 5 C-0.0625 6.25 -0.0625 6.25 -2 7 C-1.125 2.25 -1.125 2.25 0 0 Z " fill="#119327" transform="translate(98,73)"/>
<path d="M0 0 C1.62463842 -0.05395478 3.24978541 -0.09277195 4.875 -0.125 C5.77992187 -0.14820312 6.68484375 -0.17140625 7.6171875 -0.1953125 C10 0 10 0 12 2 C7.48281619 3.36884358 4.41225737 2.47075246 0 1 C0 0.67 0 0.34 0 0 Z " fill="#75C568" transform="translate(70,68)"/>
<path d="M0 0 C-0.99 1.485 -0.99 1.485 -2 3 C-4.5 3.375 -4.5 3.375 -7 3 C-7.66 2.01 -8.32 1.02 -9 0 C-3.375 -1.125 -3.375 -1.125 0 0 Z " fill="#02132D" transform="translate(203,78)"/>
<path d="M0 0 C0.33 0 0.66 0 1 0 C0.67 2.97 0.34 5.94 0 9 C-0.33 8.01 -0.66 7.02 -1 6 C-1.66 6 -2.32 6 -3 6 C-1.125 1.125 -1.125 1.125 0 0 Z " fill="#394659" transform="translate(166,71)"/>
<path d="M0 0 C0.33 0.66 0.66 1.32 1 2 C-2.75 7.875 -2.75 7.875 -5 9 C-4.42647107 5.12867972 -2.51295648 2.91827204 0 0 Z " fill="#303D4F" transform="translate(216,73)"/>
<path d="M0 0 C-0.33 0.99 -0.66 1.98 -1 3 C-2.65 3 -4.3 3 -6 3 C-6 2.01 -6 1.02 -6 0 C-2.25 -1.125 -2.25 -1.125 0 0 Z " fill="#FDE3D7" transform="translate(247,65)"/>
<path d="M0 0 C0.33 0.66 0.66 1.32 1 2 C1.99 2.33 2.98 2.66 4 3 C3.01 3.99 2.02 4.98 1 6 C0.01 5.34 -0.98 4.68 -2 4 C-2 3.34 -2 2.68 -2 2 C-1.34 2 -0.68 2 0 2 C0 1.34 0 0.68 0 0 Z " fill="#209D32" transform="translate(66,55)"/>
</svg>
